<svg viewBox="0 0 100 100" fill="none" xmlns="http://www.w3.org/2000/svg">
  <circle cx="50" cy="50" r="48" fill="#BBF7D0" stroke="#86EFAC" stroke-width="2"/>
  <path d="M24 37 C17 29 13 41 21 50 C24 46 25 41 24 37Z" fill="#7A685A" stroke="#4A9A9A" stroke-width="2" stroke-linejoin="round"/>
  <path d="M76 37 C83 29 87 41 79 50 C76 46 75 41 76 37Z" fill="#7A685A" stroke="#4A9A9A" stroke-width="2" stroke-linejoin="round"/>
  <ellipse cx="50" cy="53" rx="29" ry="26" fill="#E8DDD0" stroke="#4A9A9A" stroke-width="2.5"/>
  <path d="M44 37 C48 35 52 35 56 37" stroke="#BCA892" stroke-width="2" stroke-linecap="round"/>
  <path d="M43 41 C47 39 53 39 57 41" stroke="#BCA892" stroke-width="2" stroke-linecap="round"/>
  <ellipse cx="50" cy="61" rx="18" ry="13" fill="#8C7765" stroke="#4A9A9A" stroke-width="2"/>
  <circle cx="29" cy="58" r="3.5" fill="#F472B6" opacity="0.35"/>
  <circle cx="71" cy="58" r="3.5" fill="#F472B6" opacity="0.35"/>
  <ellipse cx="37" cy="49" rx="4" ry="4.5" fill="#243434"/>
  <circle cx="36" cy="47.5" r="1.5" fill="#FFFFFF"/>
  <ellipse cx="63" cy="49" rx="4" ry="4.5" fill="#243434"/>
  <circle cx="62" cy="47.5" r="1.5" fill="#FFFFFF"/>
  <path d="M46 56 C46 54.5 48 53.5 50 53.5 C52 53.5 54 54.5 54 56 C54 58 51.5 59 50 59 C48.5 59 46 58 46 56Z" fill="#243434"/>
  <circle cx="48.5" cy="56.5" r="0.8" fill="#5D4D40"/>
  <circle cx="51.5" cy="56.5" r="0.8" fill="#5D4D40"/>
  <path d="M44 62 C46.5 65.5 53.5 65.5 56 62" stroke="#243434" stroke-width="2.2" stroke-linecap="round"/>
</svg>
